<?xml version="1.0" encoding="UTF-8" standalone="no"?>
<!-- Created with Inkscape (http://www.inkscape.org/) -->

<svg
   xmlns:dc="http://purl.org/dc/elements/1.1/"
   xmlns:cc="http://creativecommons.org/ns#"
   xmlns:rdf="http://www.w3.org/1999/02/22-rdf-syntax-ns#"
   xmlns:svg="http://www.w3.org/2000/svg"
   xmlns="http://www.w3.org/2000/svg"
   xmlns:xlink="http://www.w3.org/1999/xlink"
   xmlns:sodipodi="http://sodipodi.sourceforge.net/DTD/sodipodi-0.dtd"
   xmlns:inkscape="http://www.inkscape.org/namespaces/inkscape"
   width="1105.915"
   height="706.67358"
   id="svg3384"
   version="1.1"
   inkscape:version="0.91 r13725"
   viewBox="0 0 1105.915 706.67358"
   sodipodi:docname="sentibot.svg">
  <defs
     id="defs3386">
    <filter
       inkscape:collect="always"
       style="color-interpolation-filters:sRGB"
       id="filter4571"
       x="-0.51348543"
       width="2.0269709"
       y="-0.27883795"
       height="1.557676">
      <feGaussianBlur
         inkscape:collect="always"
         stdDeviation="9.1297236"
         id="feGaussianBlur4573" />
    </filter>
    <filter
       inkscape:collect="always"
       style="color-interpolation-filters:sRGB"
       id="filter4575"
       x="-0.5391593"
       width="2.0783186"
       y="-0.29277962"
       height="1.5855592">
      <feGaussianBlur
         inkscape:collect="always"
         stdDeviation="9.5862017"
         id="feGaussianBlur4577" />
    </filter>
    <filter
       inkscape:collect="always"
       style="color-interpolation-filters:sRGB"
       id="filter4589"
       x="-1.0194163"
       width="3.0388324"
       y="-0.12742703"
       height="1.2548541">
      <feGaussianBlur
         inkscape:collect="always"
         stdDeviation="4.0948495"
         id="feGaussianBlur4591" />
    </filter>
    <filter
       inkscape:collect="always"
       style="color-interpolation-filters:sRGB"
       id="filter4593"
       x="-1.2640764"
       width="3.5281527"
       y="-0.15800954"
       height="1.3160191">
      <feGaussianBlur
         inkscape:collect="always"
         stdDeviation="6.558585"
         id="feGaussianBlur4595" />
    </filter>
    <filter
       inkscape:collect="always"
       style="color-interpolation-filters:sRGB"
       id="filter4597"
       x="-0.89708626"
       width="2.7941725"
       y="-0.11213578"
       height="1.2242717">
      <feGaussianBlur
         inkscape:collect="always"
         stdDeviation="3.6034674"
         id="feGaussianBlur4599" />
    </filter>
  </defs>
  <sodipodi:namedview
     id="base"
     pagecolor="#ffffff"
     bordercolor="#666666"
     borderopacity="1.0"
     inkscape:pageopacity="0.0"
     inkscape:pageshadow="2"
     inkscape:zoom="1.4142136"
     inkscape:cx="520.03133"
     inkscape:cy="233.81628"
     inkscape:current-layer="layer1"
     inkscape:document-units="px"
     showgrid="false"
     inkscape:snap-object-midpoints="true"
     inkscape:window-width="960"
     inkscape:window-height="965"
     inkscape:window-x="960"
     inkscape:window-y="24"
     inkscape:window-maximized="0"
     fit-margin-top="10"
     fit-margin-left="0"
     fit-margin-right="0"
     fit-margin-bottom="0" />
  <metadata
     id="metadata3389">
    <rdf:RDF>
      <cc:Work
         rdf:about="">
        <dc:format>image/svg+xml</dc:format>
        <dc:type
           rdf:resource="http://purl.org/dc/dcmitype/StillImage" />
        <dc:title />
      </cc:Work>
    </rdf:RDF>
  </metadata>
  <g
     id="layer1"
     inkscape:label="Layer 1"
     inkscape:groupmode="layer"
     style="display:inline"
     transform="translate(40.95752,-84.66093)">
    <path
       style="fill:#d40000;stroke:none"
       id="path4408"
       sodipodi:type="arc"
       sodipodi:cx="512"
       sodipodi:cy="-791.33453"
       sodipodi:rx="552.95752"
       sodipodi:ry="147.78532"
       sodipodi:start="0"
       sodipodi:end="3.1415927"
       sodipodi:open="true"
       d="m 1064.9575,-791.33453 a 552.95752,147.78532 0 0 1 -276.47875,127.98584 552.95752,147.78532 0 0 1 -552.95752,0 552.95752,147.78532 0 0 1 -276.47875,-127.98585"
       transform="scale(1,-1)" />
    <g
       id="g4400"
       transform="matrix(1.3658086,0,0,0.76429727,-187.294,210.6003)">
      <path
         d="m 517.92383,485.54297 c -45.77903,-0.67128 -91.79111,6.62037 -131.51758,20.86914 -38.01344,13.63445 -70.19549,33.59032 -92.31055,57.38672 C 271.98065,587.59523 259.99987,615.24497 260,643 c -6.5e-4,13.46936 12.73459,25.81729 34.85938,36.26172 22.12478,10.44443 54.13671,19.13941 92.00195,25.09766 C 424.72609,710.31755 468.33511,713.5 512,713.5 c 43.66489,0 87.27391,-3.18245 125.13867,-9.14062 37.86524,-5.95825 69.87717,-14.65323 92.00195,-25.09766 C 751.26541,668.81729 764.00065,656.46936 764,643 c 1.3e-4,-27.75503 -11.98065,-55.40477 -34.0957,-79.20117 -22.11506,-23.7964 -54.29711,-43.75227 -92.31055,-57.38672 -36.30028,-13.01988 -77.83908,-20.25591 -119.66992,-20.86914 z"
         inkscape:href="#path4316"
         id="path4398"
         style="fill:#000000;stroke:none"
         xlink:href="#path4316"
         inkscape:original="M 517.88672 488.04297 A 249.5 155 0 0 0 387.25 508.76562 A 249.5 155 0 0 0 262.5 643 A 249.5 68 0 0 0 387.25 701.89062 A 249.5 68 0 0 0 636.75 701.89062 A 249.5 68 0 0 0 761.5 643 A 249.5 155 0 0 0 636.75 508.76562 A 249.5 155 0 0 0 517.88672 488.04297 z "
         inkscape:radius="2.4999988"
         sodipodi:type="inkscape:offset" />
      <path
         inkscape:connector-curvature="0"
         id="path4316"
         d="M 517.88672,488.04297 A 249.5,155 0 0 0 387.25,508.76562 249.5,155 0 0 0 262.5,643 a 249.5,68 0 0 0 124.75,58.89062 249.5,68 0 0 0 249.5,0 A 249.5,68 0 0 0 761.5,643 249.5,155 0 0 0 636.75,508.76562 249.5,155 0 0 0 517.88672,488.04297 Z"
         style="fill:#aa0000;stroke:none" />
    </g>
    <path
       sodipodi:type="inkscape:offset"
       inkscape:radius="2.2980971"
       inkscape:original="M 409.99609 517.29688 L 409.99609 609.29688 L 410.16797 609.29688 A 102.05709 41.923729 0 0 0 410.15234 609.43555 A 102.05709 41.923729 0 0 0 512.20898 651.35938 A 102.05709 41.923729 0 0 0 614.26758 609.43555 A 102.05709 41.923729 0 0 0 614.00391 606.44727 L 614.00391 517.29688 L 409.99609 517.29688 z "
       xlink:href="#path4311"
       style="fill:#000000;stroke:none"
       id="path4314"
       inkscape:href="#path4311"
       d="m 409.99609,514.99805 a 2.2983269,2.2983269 0 0 0 -2.29882,2.29883 l 0,92 a 2.2983269,2.2983269 0 0 0 0.26953,1.07617 c 0.59298,12.07137 12.40928,23.11171 31.20312,30.83203 19.28394,7.92164 46.07347,12.45307 73.03906,12.45312 26.96593,1.7e-4 53.75472,-4.52951 73.03907,-12.45117 19.28435,-7.92166 31.31843,-19.33114 31.31836,-31.77148 a 2.2983269,2.2983269 0 0 0 0,-0.004 c -0.001,-0.99747 -0.11007,-1.99231 -0.26368,-2.98437 l 0,-89.15039 a 2.2983269,2.2983269 0 0 0 -2.29882,-2.29883 l -204.00782,0 z" />
    <path
       style="fill:#d40000;fill-opacity:1;stroke:none"
       d="m 409.99636,517.29646 0,92 0.17142,0 a 102.05709,41.923729 0 0 0 -0.0163,0.13867 102.05709,41.923729 0 0 0 102.05693,41.92383 102.05709,41.923729 0 0 0 102.05926,-41.92383 102.05709,41.923729 0 0 0 -0.26406,-2.98828 l 0,-89.15039 -204.0073,0 z"
       id="path4311"
       inkscape:connector-curvature="0" />
    <g
       id="g4326"
       transform="matrix(1.186089,0,0,1.022783,-95.277554,59.235674)">
      <path
         d="m 398.80078,244.07617 a 1.5626582,1.5626582 0 0 0 -1.5625,1.5625 l 0,168.25977 0,0.33984 a 1.5626582,1.5626582 0 0 0 0.28711,0.90039 c 0.638,3.91349 4.06528,7.34491 9.63281,10.36524 5.95903,3.2327 14.47643,6.10741 25.01368,8.50976 21.07448,4.80471 50.35523,7.57426 79.82812,7.57813 29.47648,-0.003 58.76281,-2.77135 79.8418,-7.57618 10.53949,-2.40241 19.05916,-5.27871 25.01953,-8.51171 5.59331,-3.03391 9.03327,-6.48036 9.64844,-10.41602 a 1.5626582,1.5626582 0 0 0 0.25195,-0.84961 l 0,-0.33984 0,-168.25977 a 1.5626582,1.5626582 0 0 0 -1.5625,-1.5625 l -226.39844,0 z"
         inkscape:href="#rect3451"
         id="path3945"
         style="fill:#000000"
         xlink:href="#rect3451"
         inkscape:original="M 398.80078 245.63867 L 398.80078 413.89844 L 398.80078 414.23828 L 398.875 414.23828 A 113.19883 26.130892 0 0 0 512 440.0293 A 113.19883 26.130892 0 0 0 625.14648 414.23828 L 625.19922 414.23828 L 625.19922 413.89844 L 625.19922 245.63867 L 398.80078 245.63867 z "
         inkscape:radius="1.5625019"
         sodipodi:type="inkscape:offset" />
      <path
         inkscape:connector-curvature="0"
         id="rect3451"
         d="m 398.80131,245.63909 0,168.25853 0,0.34072 0.074,0 a 113.19883,26.130892 0 0 0 113.12532,25.79025 113.19883,26.130892 0 0 0 113.14593,-25.79025 l 0.0522,0 0,-0.34072 0,-168.25853 -226.39735,0 z"
         style="fill:#d40000" />
    </g>
    <g
       id="top_head"
       transform="matrix(1.186089,0,0,1,-95.277554,69.296464)"
       inkscape:label="#g4322">
      <path
         inkscape:connector-curvature="0"
         id="path3490"
         d="m 511.9764,122.49201 c -16.01033,0.006 -32.01332,3.11843 -46.82273,9.10642 -14.80941,5.98798 -28.41402,14.84719 -39.80413,25.93119 -11.39011,11.08399 -20.55819,24.38545 -26.81135,38.92771 -6.23847,14.50809 -9.56647,30.24331 -9.72709,46.02011 a 0.56196301,0.7953884 0 0 0 -0.006,0.15561 c -0.005,0.0995 -0.01,0.19923 -0.015,0.29883 6.4e-4,0.004 0.003,0.003 0.004,0.007 l 0.004,0.002 c 0.002,0.0173 -0.002,0.0205 -0.002,0.03 2.6e-4,0.002 6.4e-4,0.004 0.002,0.005 l -0.002,0 c -2.7e-4,0.003 -6.3e-4,0.006 -0.002,0.009 0.002,0.007 0.007,0.004 0.006,0.0195 9e-5,0.005 0,0.011 0,0.0159 l 0,0.005 c 6.4e-4,0.003 0.002,0.005 0.002,0.007 6.4e-4,0.003 -3e-4,0.007 0,0.0106 0.002,0.005 0.003,0.009 0.004,0.0141 0.002,0.007 0.002,0.0127 0.002,0.0195 4.2e-4,7.7e-4 6.4e-4,0.003 0.002,0.004 0.002,0.004 0.002,0.008 0.002,0.0124 6.4e-4,0.003 0.002,0.005 0.002,0.009 3.5e-4,0.002 7e-5,0.004 0,0.005 l 0,0.002 c 3.1e-4,7.7e-4 6.5e-4,0.003 0.002,0.004 0.002,0.005 0.006,0.01 0.008,0.0195 2.4e-4,0.003 -6.4e-4,0.005 -0.002,0.009 6.4e-4,0.005 0.002,7.7e-4 0.002,0.004 0.002,0.003 4.9e-4,0.007 0.002,0.009 0.002,0.003 0.002,0.006 0.002,0.0106 l 0,0.002 0.002,0.002 c 0.002,0.002 0.003,0.006 0.002,0.009 -2.3e-4,0.002 -0.002,0.002 -0.002,0.004 -6.3e-4,0.0134 0.005,-0.005 0.006,0.0106 6.2e-4,0.003 -0.003,0.002 -0.004,0.004 -1.7e-4,5.3e-4 0.002,-4e-4 0.002,0 l 0,0.002 0,0.002 0,0.002 c 1.4e-4,0.005 -0.003,0.005 -0.004,0 l 0,-0.002 c -2.1e-4,-0.003 0.002,-0.003 0.002,-0.004 1.1e-4,-7.7e-4 -6.4e-4,-0.002 0,-0.005 l -0.002,0 -0.002,0 c -0.004,-0.002 -0.002,-0.006 -0.002,-0.0106 0.002,-0.006 0.003,-0.002 -0.002,-0.007 l -0.002,0 c 3.6e-4,0.004 4.9e-4,0.007 0.002,0.0106 0.002,0.002 0.002,0.003 0.002,0.007 2.8e-4,0.002 -1.3e-4,0.004 0,0.005 l 0.002,0 c 0.002,0.002 0.002,0.005 0.002,0.007 l 0,0.002 0,0.002 c 0.002,-2.6e-4 0.006,0.005 0.004,0.007 0.002,-2e-4 0.003,0.003 0.004,0.004 4e-4,7.7e-4 2e-5,0.003 0,0.004 -4.9e-4,0.005 -0.003,0.004 -0.004,0.002 l 0,0.002 c 0.002,7.2e-4 0.002,0.002 0.002,0.004 l 0.002,0 c 6.4e-4,7.7e-4 5.4e-4,0.003 0.002,0.004 6.4e-4,7.7e-4 0.002,0.002 0.002,0.002 l -0.002,0.002 0,0.002 c 0,0 0,0.002 0,0.002 6.4e-4,2.4e-4 0.002,-4.4e-4 0.002,0 -0.002,7.7e-4 0.003,0.003 0.002,0.004 -4.9e-4,-0.002 -0.002,-0.004 -0.002,-0.005 -0.002,-0.007 0.002,-7.7e-4 0,-0.009 -2.9e-4,-7.7e-4 -6.1e-4,-0.005 -0.002,-0.005 -0.003,-0.0168 0.002,0.005 -0.002,-0.009 -0.002,-0.0126 -0.007,-0.0257 -0.008,-0.0389 l 0.002,0 c 4.4e-4,0.0129 0.005,0.0248 0.008,0.0371 0.002,0.005 -6.4e-4,0.008 0.002,0.0106 4.1e-4,7.7e-4 0.002,0.003 0.002,0.004 0.003,0.015 -5.6e-4,-7.8e-4 0.002,0.0106 3.1e-4,0.002 5.7e-4,0.005 0.002,0.007 6.4e-4,0.003 0.002,0.005 0.002,0.007 l 0,0.002 c 6.1e-4,0.003 0.002,0.005 0.002,0.007 2.8e-4,7.7e-4 -1.1e-4,0.003 0,0.004 3.6e-4,3e-4 0.002,0.004 0.002,0.005 l -0.002,0.002 c 10e-5,7.7e-4 -2.7e-4,0.003 0,0.004 l 0,0.002 c 0.002,7.7e-4 1.2e-4,0.004 0,0.005 -0.002,-6.3e-4 -0.002,-0.003 -0.002,0 l 0,-0.002 c -0.002,-4.7e-4 -0.002,-7.7e-4 -0.004,-0.002 4.4e-4,7.7e-4 -3.9e-4,0.003 0,0.004 0,0 0,0.002 0,0.002 0,0 0.002,0.002 0.002,0.002 -1.9e-4,0.002 2e-4,0.004 0,0.005 0.002,0.004 0.004,0.007 0.005,0.0124 -0.002,-0.003 -0.004,-0.005 -0.005,-0.007 0.003,0.009 0.005,0.0177 0.006,0.023 -1e-4,-0.005 -6.4e-4,-0.008 -0.002,-0.0124 l 0.002,0 c -5e-4,-0.004 -0.002,-0.004 0,-0.007 0.002,-1e-4 -0.005,-0.005 -0.004,-0.009 4e-4,-0.004 3.7e-4,-0.005 0.002,-0.007 l 0.002,0.002 0.002,0.002 c 0.002,0.01 4.4e-4,-7.7e-4 0.002,0.005 l 0,0.002 c 2.7e-4,0.002 6.4e-4,0.003 0.002,0.004 4.4e-4,0.002 0.002,0.003 0.002,0.005 -0.002,0.005 0.002,0.002 0,0.009 -1.5e-4,0.003 10e-6,0.006 0,0.009 -8e-5,0.005 0,0.008 0,0.0124 l 0.002,0.002 c 0.003,7.6e-4 0.002,0.005 0.002,0.009 -0.002,0.003 -2.5e-4,0.006 0,0.009 l 0,0.002 c 0.002,0.007 0.003,0.0231 0.002,0.0177 l 0,0.002 c 3.8e-4,0.002 -5e-4,0.003 0.002,0.005 l 0.002,0 c 5e-4,0.004 -1.2e-4,0.0119 0,0.0159 2.6e-4,0.004 0,0.007 0,0.0106 l 0,0.002 c 4.9e-4,0.005 0.002,0.0106 0.002,0.0159 l 0.002,0 0.002,-0.002 0,0.004 c 0.002,3.1e-4 0.003,-4e-5 0.002,0.002 l 0,0.0106 c -1e-5,0.004 -1e-5,0.008 0,0.0124 -5.5e-4,0.005 -0.002,0.007 0,0.0106 l 0,0.002 c 0.002,0.002 0.002,0.005 0.002,0.007 6.5e-4,7.7e-4 0.002,0.002 0.002,0.004 1e-5,7.7e-4 2.8e-4,0.003 0,0.004 0.002,0.002 0.003,0.004 0.002,0.009 -0.002,0.0137 0.003,-0.005 0.005,0.0106 -3.3e-4,0.004 -0.002,0.005 -0.002,0.009 l 0.002,0 c 0.004,0.003 0.003,0.005 0.002,0.009 l 0,0.002 0,0.002 c 0.003,0.004 0.002,0.008 0.002,0.0106 l 0.002,0 c 0.002,0.002 0.003,0.005 0.004,0.007 5.1e-4,0.002 -1.7e-4,0.004 0,0.005 -7e-5,-0.002 -6.1e-4,-0.004 -0.002,-0.005 -2.4e-4,-0.002 -0.002,-0.003 -0.002,-0.004 0.002,2.7e-4 10e-5,0.003 0.002,0.005 0.002,0.004 0.005,0.006 0.002,0.007 l 0,0.002 0.002,0.002 0.002,0.004 c 2.2e-4,0.002 -4e-5,0.002 0,0.004 l 0,0.002 0.002,0.002 c 0.002,0.003 0.003,0.005 0.002,0.009 -0.002,0.014 0.003,-0.007 0.005,0.009 l 0,0.002 c 6.4e-4,0.002 0.002,0.004 0.002,0.005 0.002,-0.0184 0.002,0.008 0.002,0.0212 -0.002,-0.003 -0.002,-0.003 -0.004,-0.004 0.005,0.005 0.005,0.006 0.004,0.0141 l 0,0.002 0.002,0 c -2.2e-4,-0.004 -6.4e-4,-0.004 -0.002,-0.0106 6.4e-4,0.003 0.002,0.005 0.002,0.009 0.004,0.002 0.003,0.006 0.002,0.0106 0.002,5.3e-4 0.003,-5e-5 0.004,0.002 0.002,0.002 4.7e-4,0.004 0,0.005 0.002,-6e-4 0.002,0.005 0.002,0.007 2.9e-4,0.002 0.002,0.003 0.002,0.004 l 0.002,0.002 c 6.4e-4,7.8e-4 6.4e-4,0.004 0.002,0.005 0.003,0.009 0.005,0.021 0.009,0.0283 0.007,0.008 0.005,0.024 0.01,0.0336 0.006,0.0137 0.0103,0.0287 0.0137,0.0442 0.003,0.0102 0.003,0.0205 0.005,0.03 0.004,0.009 0.007,0.021 0.01,0.03 0.003,0.0199 0.008,0.0364 0.004,0.0566 -0.002,0.006 0.002,-0.0109 0.002,-0.0194 0.007,0.0272 0.005,0.009 0.006,0.0512 2.6e-4,0.005 0.002,-0.0104 0.002,-0.0159 6.4e-4,0.008 0.0134,0.0396 0.006,0.046 -0.002,-0.004 4.5e-4,-0.0141 0,-0.0212 0.002,0.005 0.003,0.01 0.004,0.0124 0.002,0.007 0.003,0.0161 0.005,0.023 6e-4,7.8e-4 6.4e-4,0.003 0.002,0.004 l 0,0.002 c 0.004,0.008 0.007,0.0159 0.01,0.0247 0.002,0.009 0.007,0.018 0.01,0.0266 0.005,0.005 -0.0137,-0.0292 -0.0113,-0.0212 0.002,0.008 0.005,0.0154 0.009,0.023 0.003,0.006 0.008,0.0122 0.009,0.0195 5.9e-4,0.003 0.002,0.006 0.002,0.009 5.2e-4,0.002 6.4e-4,0.004 0.002,0.005 0.003,0.009 0.008,0.0168 0.009,0.0265 4e-5,-7.7e-4 -5e-5,-0.003 0,-0.004 -4.5e-4,-0.002 -0.002,-0.004 -0.002,-0.005 6.4e-4,-7.7e-4 0.002,0.002 0.002,0.004 5.1e-4,7.7e-4 0.002,0.003 0.002,0.004 0.002,0.005 0.002,0.0132 0.004,0.0195 0,-7.7e-4 6.4e-4,0.002 0.002,0.004 1.8e-4,7.7e-4 0.002,0.003 0.002,0.004 8e-5,0.002 -10e-6,0.004 0,0.005 6.4e-4,0.005 0.002,0.009 0.002,0.0141 0.002,0.007 0.003,0.017 0.005,0.0247 3.2e-4,0.002 6.4e-4,0.002 0.002,0.004 0.002,0.004 0.007,0.035 0.005,0.0265 -0.013,-0.0444 -5.1e-4,-0.013 0.002,-0.009 0.002,0.005 0.002,0.0106 0.002,0.0159 0,-7.7e-4 0.002,0.002 0.002,0.004 l 0,0.002 c 1.9e-4,7.7e-4 0.002,0.002 0.002,0.004 6.1e-4,0.002 6.4e-4,0.005 0.002,0.007 l 0.002,0.002 c 6.4e-4,7.7e-4 0.002,0.004 0.002,0.005 0.002,0.007 0.005,0.0147 0.006,0.023 l 0,0.002 c 6.4e-4,0.003 0.002,0.005 0.002,0.007 6e-4,0.002 6.1e-4,0.002 0.002,0.004 0.002,0.005 0.004,0.012 0.005,0.0177 5.8e-4,7.8e-4 6.4e-4,0.003 0.002,0.004 l 0,0.002 c 0.002,0.005 0.006,0.0105 0.008,0.0159 l 0,0.002 c 6.3e-4,7.7e-4 0.002,0.002 0.002,0.004 0.002,0.005 0.002,0.0111 0.004,0.0177 l 0.002,0.002 c 0.002,0.005 -10e-5,0.002 0.002,0.005 0.002,0.005 0.002,0.01 0.002,0.0141 0.002,0.002 0.002,4.6e-4 0.002,0.002 0.002,0.002 0.004,0.003 0.005,0.005 0.002,0.003 1.1e-4,0.005 0.002,0.007 0.004,0.005 0.0101,0.01 0.0163,0.0266 -0.003,-0.008 0.002,0.007 0.002,0.007 5.8e-4,7.7e-4 6.4e-4,0.003 0.002,0.004 l 0.002,0.002 c 6.4e-4,0.002 0.002,0.005 0.002,0.007 l 0.002,0 0,0.002 c 0.002,0.002 0.003,0.002 0.004,0.004 0.002,0.002 0.003,0.009 0.002,0.007 -0.003,-0.008 -0.005,-0.01 -0.006,-0.0106 -0.004,-0.006 0.005,0.0144 0.006,0.0177 0.007,0.007 -0.002,4.2e-4 -0.006,-0.005 0.002,0.004 0.005,0.007 0.008,0.0106 0.003,0.005 0.008,0.011 0.0113,0.0159 0.002,0.003 0.005,0.004 0.008,0.007 0.003,0.006 0.002,0.009 0.004,0.0124 -6.3e-4,-7.7e-4 -0.003,-0.003 -0.002,-0.002 0.007,0.011 0.005,0.009 0.008,0.0124 0.005,0.007 0.0107,0.0161 0.0137,0.0247 a 0.56196301,0.7953884 0 0 0 0.002,0 c -0.004,-0.005 -0.0117,-0.0183 -0.002,-0.007 0.002,0.002 0.003,0.002 0.004,0.004 4.3e-4,7.7e-4 6.3e-4,0.003 0.002,0.004 a 0.56196301,0.7953884 0 0 0 0.11869,0.0194 l 0.0174,0 c 0.50097,1.69773 1.54017,3.25858 3.21072,4.73181 1.86496,1.64466 4.4306,3.21459 7.66949,4.71764 6.47777,3.00612 15.67066,5.72885 26.95128,7.99774 11.28058,2.26888 24.63869,4.07944 39.127,5.30293 14.48829,1.2235 30.09598,1.85975 45.71334,1.86372 15.62362,-0.002 31.24032,-0.63759 45.73708,-1.86018 14.49677,-1.22259 27.8636,-3.03212 39.15199,-5.30117 11.2884,-2.26907 20.48625,-4.99242 26.96876,-7.9995 3.24126,-1.50354 5.80948,-3.07416 7.67574,-4.71942 1.67781,-1.47913 2.72231,-3.04549 3.22071,-4.75126 a 0.56196301,0.7953884 0 0 0 0.0212,-0.009 c 0.007,-0.0276 0.0115,-0.056 0.0225,-0.0796 0.008,-0.0162 0.0191,-0.0289 0.0275,-0.0441 0.005,-0.0105 0.0104,-0.022 0.015,-0.0336 0.002,-0.007 0.003,-0.0158 0.008,-0.0212 -6.4e-4,-0.009 -0.002,-0.0192 -0.002,-0.0283 0.003,-0.0183 0.0181,-0.0281 0.025,-0.0442 0.005,-0.0101 0.005,-0.0226 0.009,-0.0336 0.0251,-0.082 0.009,-0.0176 0.0225,-0.0796 0.003,-0.0126 0.008,-0.0193 0.01,-0.0282 0.002,-0.0113 -4.9e-4,-0.0245 0.004,-0.0354 0.008,-0.0205 0.0199,-0.0384 0.0287,-0.0583 0.0215,-0.0238 0.0175,-0.0204 0.0174,-0.0212 6.4e-4,-0.005 0.002,-0.01 0.002,-0.0141 0.005,-0.0184 0.0237,-0.0718 0.0287,-0.0866 0.0238,-0.0958 0.0769,-0.16739 0.11244,-0.25286 0.006,-0.0148 0.009,-0.0318 0.0137,-0.0477 6.4e-4,-0.003 0.002,-0.006 0.002,-0.009 0.002,-0.008 0.007,-0.006 0.01,-0.0124 4e-5,-0.002 -3e-5,-0.002 0,-0.004 l 0,-0.005 c 8e-5,-0.007 1e-5,-0.003 0,-0.0159 l 0,-0.004 0,-0.009 c 0,-0.005 0.006,-0.008 0.006,-0.0106 l 0,-0.002 c -0.002,-7.7e-4 -0.005,-7.3e-4 -0.006,-0.002 -0.002,-7.7e-4 -6e-4,-0.006 0,-0.0106 l -0.002,0 c -0.002,1.2e-4 -0.002,-0.005 0,-0.005 l 0.002,0 c 2e-4,-7.7e-4 0,-0.003 0,-0.004 l 0,-0.004 c -3.3e-4,-0.005 -0.002,-0.0103 0,-0.0141 0.005,-0.0125 0.0123,-0.0104 0.0163,-0.0195 2.6e-4,-0.009 -6.4e-4,-0.0199 0.004,-0.0266 0.002,-0.003 0.002,3e-4 0.002,-0.002 -5.2e-4,-0.004 -0.002,-0.007 -0.002,-0.0106 -6.4e-4,8e-5 -0.002,-6e-5 -0.002,0 -0.002,1.2e-4 0.002,-0.004 0.002,-0.005 0.002,-3.5e-4 0.002,-0.002 0.004,-0.002 0.002,-5.8e-4 0.004,-7.7e-4 0.006,-0.002 -2.1e-4,-0.002 -0.002,-0.002 -0.002,-0.004 -0.003,-0.002 -0.005,-0.002 -0.008,-0.004 -0.002,-7.7e-4 -6.3e-4,-0.006 0,-0.0106 l -0.002,0 c -0.002,-7e-5 -7e-5,-0.005 0,-0.007 l 0.002,0 c 4e-5,-0.002 -0.002,-0.005 0,-0.005 0.002,1.2e-4 0.002,-1.5e-4 0.004,0 -3.2e-4,-0.005 -0.002,-0.0108 -0.002,-0.0141 -9e-5,-0.002 -0.002,-0.007 -0.002,-0.009 0.019,0.002 0.007,5.6e-4 0.0188,0.002 l -0.002,-0.002 c 6.4e-4,-0.003 0.002,-0.005 0.002,-0.007 -0.008,-0.003 -0.0137,-0.002 -0.0199,-0.005 -0.004,-0.002 0,-0.0117 0,-0.0177 -1e-5,-0.002 -0.002,-0.005 0,-0.005 0.006,-0.004 0.0125,-0.007 0.0187,-0.0106 2.7e-4,-0.005 0.002,-0.007 0.002,-0.0106 9e-5,-7.7e-4 -7e-5,-0.003 0,-0.004 4.3e-4,-0.005 0.002,-0.0169 0.002,-0.0177 6.4e-4,8e-5 0.002,-9e-5 0.002,0 3.5e-4,-0.003 -0.002,-0.005 -0.002,-0.007 -6.4e-4,-0.003 0.005,-0.004 0.006,-0.007 -0.002,-7.7e-4 -0.004,-0.003 -0.005,-0.007 -5.9e-4,-0.003 -0.002,-0.002 -0.002,-0.005 -0.002,-2.4e-4 -0.002,-0.002 -0.004,-0.002 -6.4e-4,-8e-5 0.004,-0.002 0.004,-0.002 l 0.002,-0.002 c -6.4e-4,-0.006 -0.003,-0.0114 -0.004,-0.0177 l 0.002,-0.002 0.002,0 c -5e-5,-0.003 0.002,-0.003 0.002,-0.005 -0.002,-7.7e-4 0.002,-0.01 0.004,-0.0124 -0.004,-0.10494 -0.007,-0.20988 -0.0113,-0.31475 0.005,-0.0313 0.0115,-0.0623 0.0163,-0.0937 a 0.56196301,0.7953884 0 0 0 -0.0375,-0.4898 c -0.18685,-15.71054 -3.50794,-31.37478 -9.72085,-45.82207 -6.25419,-14.54329 -15.42327,-27.84528 -26.8151,-38.92948 -11.39182,-11.0842 -24.9991,-19.94414 -39.81037,-25.93118 -14.81127,-5.98705 -30.81604,-9.09668 -46.82773,-9.10112 z m 123.20153,120.71925 c -1.3e-4,-7e-4 0.005,-0.003 0.006,-0.004 -1.2e-4,-0.004 1.2e-4,-0.007 0,-0.0106 -0.002,-7.8e-4 -0.005,-7.8e-4 -0.008,-0.002 3.5e-4,0.005 4.8e-4,0.01 0.002,0.0159 z m 0,0.0247 c 0.009,-0.0203 0.005,-0.005 0.004,0.007 -6.4e-4,-1e-4 -0.002,8e-5 -0.002,0 -3.6e-4,0.003 0.002,0.005 0.002,0.007 5.4e-4,-0.002 0.002,-0.005 0.002,-0.005 6.4e-4,-5.2e-4 0.002,-0.007 0.002,-0.007 -6.4e-4,-7.7e-4 -0.007,-3.9e-4 -0.008,-0.002 z m -0.0212,0.0937 c -0.003,4.9e-4 0.0192,-0.004 0.02,-0.004 6.4e-4,-2.7e-4 0.002,3.1e-4 0.002,0 l 0,-0.002 c 6.4e-4,-3.1e-4 0.002,3.3e-4 0.002,0 l 0.002,0 0,-0.002 -0.002,0 c -6.4e-4,1.8e-4 -0.002,-1.8e-4 -0.002,0 9e-5,-0.003 -0.002,-0.005 -0.002,-0.007 -2.3e-4,0.004 2.1e-4,0.004 0,0.007 l -0.002,0.002 c -0.006,7.7e-4 -0.0159,0.005 -0.02,0.005 z m 0.002,0.046 c 2.7e-4,-0.003 -0.003,0.003 -0.002,0.005 l 0,0.002 c 6.4e-4,-6e-5 0.002,7e-5 0.002,0 3.7e-4,-0.003 -3.1e-4,-0.005 0,-0.007 z m 0,0.007 c -5.7e-4,0.004 5.4e-4,0.007 0,0.0106 0.002,-0.002 0.002,8e-5 0.002,-0.002 0.002,-0.003 0.003,-0.005 0.005,-0.009 l 0,-0.002 c -0.002,1.9e-4 -0.005,0.002 -0.008,0.002 z m -0.30734,0.89827 c 0.003,-0.005 -0.002,0.0116 -0.004,0.0177 0.002,0.011 0.005,0.0449 0.006,0.0336 0.002,-0.0168 -6.4e-4,-0.0343 -0.002,-0.0513 z m -245.73219,0.0442 c -0.002,-0.002 -0.002,-0.007 -0.006,-0.0124 0.005,0.01 0.005,0.0223 0.009,0.0318 0.002,0.007 0.008,0.0107 0.008,0.023 -0.002,-0.0241 -0.003,-0.0279 -0.01,-0.0425 z m -0.22611,-0.79217 c -0.003,5.6e-4 -0.002,-6.1e-4 -0.002,0.002 6.4e-4,0.002 0.002,0.004 0.002,0.005 -5.2e-4,-0.003 -0.002,-0.005 0,-0.007 z m 0,0.007 c 4.9e-4,7.7e-4 6.4e-4,0.003 0.002,0.004 -6.3e-4,-7.7e-4 2.9e-4,-0.003 0,-0.004 l -0.002,0 z m -0.002,-0.005 c -3.4e-4,7e-4 0.002,-7.7e-4 0,-0.004 -0.003,-0.007 -0.003,-0.005 -0.002,-0.004 6.4e-4,0.003 0.002,0.005 0.002,0.007 z m -0.005,-0.0336 c -0.005,4.5e-4 -0.006,-0.005 -0.005,-0.0124 1.5e-4,0.003 -1.7e-4,0.005 0,0.007 l 0,0.002 -0.002,0 c -1.7e-4,-7.1e-4 0.002,0.005 0.002,0.005 l 0.002,0 c 1e-4,-0.002 -6e-5,-0.004 0,-0.005 6.4e-4,0.002 0.002,0.002 0.002,0.004 z m -0.002,0.002 c -7e-5,7.7e-4 8e-5,0.002 0,0.004 l 0.002,0 c -3.7e-4,-7.7e-4 -6.4e-4,-0.003 -0.002,-0.004 z m -0.035,-0.22811 c -0.002,-5.4e-4 0.002,-0.004 0.002,-0.005 -5.8e-4,5.5e-4 -0.002,-5.5e-4 -0.002,0 l 0,-0.002 0,-0.002 0.002,0 c -0.002,-0.003 -0.002,-0.005 -0.002,-0.007 0,0 -0.002,0 -0.002,0 -2.2e-4,0.002 -0.002,0.002 -0.002,0.004 -6.4e-4,0.003 2.6e-4,0.006 0.002,0.009 4.4e-4,7.7e-4 6.4e-4,0.003 0.002,0.004 0,0 0.002,0 0.002,0 z m -0.002,-0.0354 c -6.3e-4,7.7e-4 -0.003,2.7e-4 -0.004,0.002 -4e-4,7.7e-4 0.002,7.7e-4 0.002,0.002 l 0,0.002 c -0.002,-0.002 6.4e-4,-0.002 0.002,-0.002 -3.8e-4,-7.7e-4 -6.4e-4,-0.003 -0.002,-0.004 z m -0.0499,-0.26348 c 1.6e-4,-0.002 -4e-5,-0.004 0,-0.005 -0.002,-0.009 -0.002,-0.0195 -0.005,-0.0282 l -0.002,-0.002 c -4.4e-4,0.008 -6.4e-4,0.0165 -0.002,0.0248 0.002,7.7e-4 0.002,0.008 0.004,0.0106 0.002,-8e-5 0.002,1.5e-4 0.004,0 z m -0.004,0.0655 c 0.002,0.005 0.005,0.0108 0.008,0.0159 -3.4e-4,-0.002 3.7e-4,-0.004 0,-0.005 -0.002,-0.005 -0.006,-0.01 -0.008,-0.0106 z m 0.045,0.1945 c -10e-6,7.7e-4 10e-6,0.003 0,0.004 0,0 0.002,0.002 0.002,0.002 -2.3e-4,-7.7e-4 2.3e-4,-0.003 0,-0.004 0,0 -0.002,-0.002 -0.002,-0.002 z m 0.005,0.0159 -0.002,0.002 0,0.002 c 6.4e-4,0.004 0.002,0.009 0.002,0.0106 -4.6e-4,-0.002 -5.6e-4,-0.004 0,-0.005 l 0.002,-0.002 c 0,0 -0.002,-0.002 -0.002,-0.002 -3.4e-4,-4.7e-4 -6.4e-4,-0.004 -0.002,-0.005 z m 0.002,0.0141 -0.002,0 c 3.8e-4,7.7e-4 -2.3e-4,0.003 0,0.004 0.002,0.004 0.002,0.002 0.002,0.007 l 0.002,0 c -3.3e-4,-0.003 -0.002,-0.005 -0.002,-0.007 -3.1e-4,-7.7e-4 -6.4e-4,-0.003 -0.002,-0.004 z m 0.005,-0.0141 c 0.002,0.003 -0.002,0.005 0,0.004 l 0.002,0 c -0.002,-0.003 -0.002,-0.003 -0.002,-0.004 z m 0.0175,0.18742 0,0.002 c 6e-4,7.7e-4 6.4e-4,0.003 0.002,0.004 3.4e-4,-7.7e-4 4.3e-4,-0.003 0,-0.005 l -0.002,0 z m 0,0.0159 0,0.005 c 6.3e-4,0.002 6.4e-4,0.003 0.002,0.004 3e-5,-0.002 -5e-5,-0.005 0,-0.007 l -0.002,-0.002 z m 0.015,0 c 3.1e-4,0.002 -2e-4,0.004 0,0.005 -0.002,-0.003 -0.002,-7.7e-4 -0.002,-0.004 -0.002,-0.0127 -0.003,-0.0313 0.002,-0.002 z m -0.009,0.0106 c 10e-6,0.002 3.1e-4,0.004 0,0.005 l 0.002,0 c 0,-7.7e-4 -2e-5,-0.003 0,-0.004 l -0.002,-0.002 z m 0.005,0.0124 c 3.6e-4,0.004 -9e-5,0.006 -0.002,0.009 l 0.002,0.002 c 0.002,0.003 0.002,7.7e-4 0.002,0.004 1.2e-4,-7.7e-4 3e-5,-0.003 0,-0.004 -0.005,-0.002 -0.003,-0.005 -0.002,-0.0106 z m 0.006,0.0371 c 6.4e-4,0.003 0.002,0.005 0.002,0.007 6.4e-4,-0.002 6.4e-4,-0.004 0,-0.005 -6.4e-4,-7.3e-4 -0.002,-7.7e-4 -0.002,-0.002 z m 0.0175,0.0654 c 0.002,0.004 0.002,0.007 0.004,0.0106 6.4e-4,-0.002 6.4e-4,-0.004 0,-0.005 l 0,-0.002 c -0.002,-7.7e-4 -0.002,-0.002 -0.004,-0.004 z m 0.0137,0.0407 c 6.5e-4,0.01 0.002,0.0209 0.002,0.0159 -6.3e-4,-0.004 -3.1e-4,-0.008 0,-0.0124 9e-5,-7.7e-4 -9e-5,-0.003 0,-0.004 l -0.002,0 z m 0.22988,0.77448 c 0.002,0.002 0.005,0.005 0.008,0.007 -0.002,-0.002 -0.002,-0.004 -0.004,-0.005 -0.002,-6.7e-4 -0.005,-0.003 -0.004,-0.002 z"
         style="fill:#000000" />
      <path
         inkscape:connector-curvature="0"
         id="path3486"
         d="M 512.00028,123.28772 A 122.66277,120.40305 0 0 0 389.39342,242.59945 l -0.004,0 a 122.63665,25.704853 0 0 0 0.002,0.0106 122.66277,120.40305 0 0 0 -0.055,1.0804 l 0.31233,0 a 122.63665,25.704853 0 0 0 122.37699,24.61385 122.63665,25.704853 0 0 0 122.45194,-24.61385 l 0.1849,0 a 122.66277,120.40305 0 0 0 -0.0325,-0.90534 122.63665,25.704853 0 0 0 0.0312,-0.18566 l -0.0387,0 A 122.66277,120.40305 0 0 0 512.00028,123.28772 Z"
         style="fill:#aa0000" />
    </g>
    <g
       id="antenna"
       inkscape:label="#g4468"
       transform="matrix(1.186089,0,0,1,-90.245861,0)">
      <g
         transform="matrix(1,0,0,0.98269384,-4.2426146,70.065359)"
         id="antenna_stalk"
         inkscape:label="#g4318">
        <path
           sodipodi:type="inkscape:offset"
           inkscape:radius="0.18750025"
           inkscape:original="M 511.99609 47.347656 L 486.24414 139.31055 A 25.758546 17.774877 0 0 0 486.24414 139.32422 L 486.22656 139.38477 L 486.24414 139.38477 A 25.758546 17.774877 0 0 0 511.99609 157.07617 A 25.758546 17.774877 0 0 0 537.75586 139.38477 L 537.77344 139.38477 L 537.75586 139.33594 A 25.758546 17.774877 0 0 0 537.75586 139.31055 L 511.99609 47.347656 z "
           xlink:href="#path4795"
           style="fill:#000000;fill-opacity:1;stroke-width:1.18700004;stroke-linejoin:miter;stroke-miterlimit:4;stroke-dasharray:none"
           id="path4800"
           inkscape:href="#path4795"
           d="m 511.99609,47.160156 a 0.187519,0.187519 0 0 0 -0.17968,0.136719 l -25.75196,91.962895 a 0.187519,0.187519 0 0 0 -0.008,0.0371 0.187519,0.187519 0 0 0 0,0.002 l -0.01,0.0332 a 0.187519,0.187519 0 0 0 0.0176,0.14258 0.187519,0.187519 0 0 0 0,0.002 c 0.0329,2.32466 0.71762,4.64306 2.01367,6.78125 1.3128,2.16582 3.24372,4.14558 5.64454,5.79492 2.40082,1.64935 5.27035,2.96694 8.39453,3.85743 3.12417,0.89048 6.50084,1.35294 9.8789,1.35351 3.37872,1.4e-4 6.75579,-0.46139 9.88086,-1.35156 3.12508,-0.89017 5.99679,-2.20801 8.39844,-3.85742 2.40165,-1.64941 4.33124,-3.63071 5.64453,-5.79688 1.29618,-2.13794 1.98239,-4.45484 2.01563,-6.77929 a 0.187519,0.187519 0 0 0 0.0137,-0.15821 l -0.006,-0.0156 a 0.187519,0.187519 0 0 0 -0.008,-0.0449 L 512.17578,47.296875 a 0.187519,0.187519 0 0 0 -0.17969,-0.136719 z"
           transform="matrix(1.0496106,0,0,1.0496106,-25.400657,-5.0708117)" />
        <path
           style="fill:#aa0000;fill-opacity:1;stroke-width:1.18700004;stroke-linejoin:miter;stroke-miterlimit:4;stroke-dasharray:none"
           d="m 511.99579,47.347531 -25.75234,91.963579 a 25.758546,17.774877 0 0 0 0,0.0123 l -0.0173,0.0613 0.0173,0 a 25.758546,17.774877 0 0 0 25.75234,17.69224 25.758546,17.774877 0 0 0 25.76076,-17.69224 l 0.0173,0 -0.0173,-0.049 a 25.758546,17.774877 0 0 0 0,-0.0245 L 511.99579,47.347609 Z"
           id="path4795"
           inkscape:connector-curvature="0" />
      </g>
      <g
         transform="translate(-4.2422677,69.296464)"
         id="antenna_tip"
         inkscape:label="#g4404">
        <path
           sodipodi:type="inkscape:offset"
           inkscape:radius="2.5154252"
           inkscape:original="M 512 25.935547 A 11.531307 12.448256 0 0 0 500.46875 38.384766 A 11.531307 12.448256 0 0 0 512 50.832031 A 11.531307 12.448256 0 0 0 523.53125 38.384766 A 11.531307 12.448256 0 0 0 512 25.935547 z "
           xlink:href="#path4804"
           style="fill:#000000;fill-opacity:1;stroke-width:1.18700004;stroke-linejoin:miter;stroke-miterlimit:4;stroke-dasharray:none"
           id="path4806"
           inkscape:href="#path4804"
           d="m 512,23.419922 c -3.72996,2e-5 -7.4191,1.666766 -10,4.453125 -2.5809,2.786359 -4.04715,6.642566 -4.04688,10.511719 2.9e-4,3.868766 1.46798,7.725847 4.04883,10.511718 2.58086,2.785871 6.26846,4.451152 9.99805,4.451172 3.72959,-2e-5 7.41719,-1.665301 9.99805,-4.451172 2.58085,-2.785871 4.04854,-6.642952 4.04883,-10.511718 2.7e-4,-3.869153 -1.46598,-7.72536 -4.04688,-10.511719 -2.5809,-2.786359 -6.27004,-4.453105 -10,-4.453125 z"
           transform="matrix(0.91190664,0,0,0.87005073,45.1038,4.9879455)" />
        <ellipse
           style="fill:#aa0000;fill-opacity:1;stroke-width:1.18700004;stroke-linejoin:miter;stroke-miterlimit:4;stroke-dasharray:none"
           id="path4804"
           cx="512"
           cy="38.384293"
           rx="11.531307"
           ry="12.448256" />
      </g>
    </g>
    <g
       id="jaw_lights"
       style="fill:#ffd42a"
       transform="matrix(0.91552247,0,0,0.77188347,43.252496,70.138623)"
       inkscape:label="#g4270">
      <rect
         y="528.58392"
         x="493.96878"
         height="77.123657"
         width="9.6404572"
         id="rect4262"
         style="fill:#ffd42a;stroke:none" />
      <rect
         style="fill:#ffd42a;stroke:none"
         id="rect4268"
         width="12.452257"
         height="99.618057"
         x="505.77386"
         y="506.08948" />
      <rect
         style="fill:#ffd42a;stroke:none"
         id="rect4266"
         width="9.6404572"
         height="77.123657"
         x="520.39075"
         y="528.58392" />
    </g>
    <g
       inkscape:label="#g4270"
       transform="matrix(0.91552247,0,0,0.77188347,43.252496,70.138623)"
       style="fill:#ffd42a"
       id="jaw_light_glow">
      <rect
         style="fill:#ffd42a;stroke:none;filter:url(#filter4589)"
         id="rect4581"
         width="9.6404572"
         height="77.123657"
         x="493.96878"
         y="528.58392" />
      <rect
         y="506.08948"
         x="505.77386"
         height="99.618057"
         width="12.452257"
         id="rect4583"
         style="fill:#ffd42a;stroke:none;filter:url(#filter4593)" />
      <rect
         y="528.58392"
         x="520.39075"
         height="77.123657"
         width="9.6404572"
         id="rect4585"
         style="fill:#ffd42a;stroke:none;filter:url(#filter4597)" />
    </g>
    <g
       id="full_jaw"
       inkscape:label="#g3506">
      <g
         transform="matrix(1.186089,0,0,0.98318232,-95.277554,75.672906)"
         id="jaw">
        <path
           sodipodi:type="inkscape:offset"
           inkscape:radius="1.5718859"
           inkscape:original="M 399.98828 380.72656 C 378.09297 380.18405 378.98135 454.8178 414.42188 477.21094 C 456.42545 503.75096 571.53101 502.09887 610.91992 477.21094 C 650.30881 452.32301 645.4909 351.73586 610.91992 389.57031 C 576.34893 427.40475 449.89445 428.39147 414.42188 389.57031 C 408.87928 383.50451 404.04297 380.82703 399.98828 380.72656 z "
           xlink:href="#rect3371"
           style="fill:#000000;fill-rule:evenodd;stroke:none;stroke-width:1px;stroke-linecap:butt;stroke-linejoin:miter;stroke-opacity:1"
           id="path4174"
           inkscape:href="#rect3371"
           d="m 400.02734,379.1543 c -3.18287,-0.0789 -6.04032,1.26776 -8.27929,3.54101 -2.23898,2.27325 -3.94195,5.43872 -5.21485,9.22852 -2.54579,7.57959 -3.36713,17.72184 -2.39453,28.58398 1.9452,21.72428 11.06146,46.41663 29.44336,58.03125 21.56237,13.62422 60.95468,19.73673 100.07813,19.5293 39.12344,-0.20743 77.83391,-6.72439 98.09961,-19.5293 20.52732,-12.97022 29.07979,-44.76023 28.46679,-68.70898 -0.3065,-11.97438 -2.78416,-22.07594 -8.0957,-27.16211 -2.65577,-2.54309 -6.21574,-3.67737 -10.04297,-2.74219 -3.82723,0.93518 -7.88364,3.71994 -12.32812,8.58399 -16.6463,18.21768 -56.63554,28.11179 -96.75586,28.23437 -40.12033,0.12258 -80.31749,-9.51534 -97.42188,-28.23437 -5.69437,-6.2319 -10.83959,-9.23864 -15.55469,-9.35547 z"
           transform="translate(0.00138633,2.7857406e-7)" />
        <path
           style="fill:#aa0000;fill-rule:evenodd;stroke:none;stroke-width:1px;stroke-linecap:butt;stroke-linejoin:miter;stroke-opacity:1"
           d="m 414.42168,389.57126 c -35.47259,-38.82116 -42.00358,61.09999 0,87.64001 42.00357,26.54002 157.10841,24.88793 196.49732,0 39.38889,-24.88793 34.57098,-125.47446 0,-87.64001 -34.57099,37.83444 -161.02474,38.82116 -196.49732,0 z"
           id="rect3371"
           inkscape:connector-curvature="0"
           sodipodi:nodetypes="zzzzz" />
      </g>
      <g
         inkscape:label="#g4252"
         transform="matrix(0.3841281,0,0,0.32386112,259.50475,333.38176)"
         id="nut_left">
        <path
           sodipodi:type="inkscape:offset"
           inkscape:radius="3.187165"
           inkscape:original="M 275.14648 379.56445 L 255.85938 417.31641 L 274.75195 455.54297 L 305.71484 441.41602 L 305.95898 394.45898 L 275.14648 379.56445 z "
           xlink:href="#path4241"
           style="fill:#000000;stroke:none"
           id="path4245"
           inkscape:href="#path4241"
           d="m 274.98828,376.38086 a 3.1874837,3.1874837 0 0 0 -2.67969,1.73437 l -19.28711,37.75196 a 3.1874837,3.1874837 0 0 0 -0.0195,2.86133 l 18.89258,38.22656 a 3.1874837,3.1874837 0 0 0 4.17969,1.48828 l 30.96289,-14.12695 a 3.1874837,3.1874837 0 0 0 1.86523,-2.88477 l 0.24414,-46.95703 a 3.1874837,3.1874837 0 0 0 -1.80078,-2.88477 l -30.8125,-14.89453 a 3.1874837,3.1874837 0 0 0 -1.54492,-0.31445 z"
           transform="matrix(1.1001674,0,0,1,-25.309557,0)" />
        <path
           sodipodi:type="star"
           style="fill:#aa0000;stroke:none"
           id="path4241"
           sodipodi:sides="5"
           sodipodi:cx="182.43355"
           sodipodi:cy="336.66486"
           sodipodi:r1="66.139999"
           sodipodi:r2="33.07"
           sodipodi:arg1="1.0688899"
           sodipodi:arg2="1.6972084"
           inkscape:flatsided="true"
           inkscape:rounded="0"
           inkscape:randomized="0"
           d="m 214.25335,394.64761 -77.13182,-9.80267 -14.51215,-76.38591 68.16281,-37.40642 56.63909,53.26747 z"
           inkscape:transform-center-x="2.577151"
           inkscape:transform-center-y="-0.10613265"
           transform="matrix(0.37915229,-0.25285121,0.17529452,0.5484711,155.30014,279.13781)" />
      </g>
      <g
         inkscape:label="#g4256"
         id="nut_right"
         transform="matrix(-0.3841281,0,0,0.32386112,764.49527,333.38176)">
        <path
           transform="matrix(1.1001674,0,0,1,-25.309557,0)"
           d="m 274.98828,376.38086 a 3.1874837,3.1874837 0 0 0 -2.67969,1.73437 l -19.28711,37.75196 a 3.1874837,3.1874837 0 0 0 -0.0195,2.86133 l 18.89258,38.22656 a 3.1874837,3.1874837 0 0 0 4.17969,1.48828 l 30.96289,-14.12695 a 3.1874837,3.1874837 0 0 0 1.86523,-2.88477 l 0.24414,-46.95703 a 3.1874837,3.1874837 0 0 0 -1.80078,-2.88477 l -30.8125,-14.89453 a 3.1874837,3.1874837 0 0 0 -1.54492,-0.31445 z"
           inkscape:href="#path4241"
           id="path4258"
           style="fill:#000000;stroke:none"
           xlink:href="#path4241"
           inkscape:original="M 275.14648 379.56445 L 255.85938 417.31641 L 274.75195 455.54297 L 305.71484 441.41602 L 305.95898 394.45898 L 275.14648 379.56445 z "
           inkscape:radius="3.187165"
           sodipodi:type="inkscape:offset" />
        <path
           transform="matrix(0.37915229,-0.25285121,0.17529452,0.5484711,155.30014,279.13781)"
           inkscape:transform-center-y="-0.10613265"
           inkscape:transform-center-x="2.577151"
           d="m 214.25335,394.64761 -77.13182,-9.80267 -14.51215,-76.38591 68.16281,-37.40642 56.63909,53.26747 z"
           inkscape:randomized="0"
           inkscape:rounded="0"
           inkscape:flatsided="true"
           sodipodi:arg2="1.6972084"
           sodipodi:arg1="1.0688899"
           sodipodi:r2="33.07"
           sodipodi:r1="66.139999"
           sodipodi:cy="336.66486"
           sodipodi:cx="182.43355"
           sodipodi:sides="5"
           id="path4260"
           style="fill:#aa0000;stroke:none"
           sodipodi:type="star" />
      </g>
    </g>
    <g
       id="eyes"
       style="fill:#ffd42a"
       transform="matrix(0.91552247,0,0,0.77188347,43.252496,70.138623)"
       inkscape:label="#g4301">
      <rect
         transform="matrix(0.99425187,0.10706644,0,1,0,0)"
         y="312.25613"
         x="417.8819"
         height="73.560486"
         width="42.671776"
         id="rect4275"
         style="fill:#ffd42a;stroke:none" />
      <rect
         style="fill:#ffd42a;stroke:none"
         id="rect4297"
         width="42.671776"
         height="73.560486"
         x="-612.03821"
         y="422.52597"
         transform="matrix(-0.99425187,0.10706644,0,1,0,0)" />
    </g>
    <g
       inkscape:label="#g4301"
       transform="matrix(0.91552247,0,0,0.77188347,43.252496,70.138623)"
       style="fill:#ffd42a"
       id="eye_glow">
      <rect
         style="fill:#ffd42a;stroke:none;filter:url(#filter4571)"
         id="rect4557"
         width="42.671776"
         height="73.560486"
         x="417.8819"
         y="312.25613"
         transform="matrix(0.99425187,0.10706644,0,1,0,0)" />
      <rect
         transform="matrix(-0.99425187,0.10706644,0,1,0,0)"
         y="422.52597"
         x="-612.03821"
         height="73.560486"
         width="42.671776"
         id="rect4559"
         style="fill:#ffd42a;stroke:none;filter:url(#filter4575)" />
    </g>
  </g>
</svg>
